# Blender v2.79 (sub 0) OBJ File: 'Plus2.blend'
# www.blender.org
mtllib Plus2.mtl
o Plane.002
v -2.000000 0.000000 -0.500000
v -2.000000 0.000000 0.500000
v -0.500000 -0.000000 -0.500000
v -0.500000 -0.000000 0.500000
v -2.000000 0.435335 -0.500000
v -2.000000 0.435335 0.500000
v -0.500000 0.435335 -0.500000
v -0.500000 0.435335 0.500000
v -0.500000 0.000000 2.000000
v 0.500000 -0.000000 2.000000
v -0.500000 0.000000 -2.000000
v 0.500000 0.000000 -2.000000
v -0.500000 0.435335 2.000000
v 0.500000 0.435335 2.000000
v -0.500000 0.435335 -2.000000
v 0.500000 0.435335 -2.000000
v 0.500000 0.000000 -0.500000
v 0.500000 0.000000 0.500000
v 2.000000 -0.000000 -0.500000
v 2.000000 -0.000000 0.500000
v 0.500000 0.435335 -0.500000
v 0.500000 0.435335 0.500000
v 2.000000 0.435335 -0.500000
v 2.000000 0.435335 0.500000
vn -0.0000 -1.0000 -0.0000
vn 0.0000 1.0000 0.0000
vn -0.0000 -0.0000 1.0000
vn 0.0000 0.0000 -1.0000
vn 1.0000 -0.0000 -0.0000
vn -1.0000 0.0000 0.0000
usemtl None
s off
f 1//1 3//1 4//1 2//1
f 5//2 6//2 8//2 7//2
f 2//3 4//3 8//3 6//3
f 3//4 1//4 5//4 7//4
f 4//5 3//5 7//5 8//5
f 1//6 2//6 6//6 5//6
f 9//1 11//1 12//1 10//1
f 13//2 14//2 16//2 15//2
f 10//5 12//5 16//5 14//5
f 11//6 9//6 13//6 15//6
f 12//4 11//4 15//4 16//4
f 9//3 10//3 14//3 13//3
f 17//1 19//1 20//1 18//1
f 21//2 22//2 24//2 23//2
f 18//3 20//3 24//3 22//3
f 19//4 17//4 21//4 23//4
f 20//5 19//5 23//5 24//5
f 17//6 18//6 22//6 21//6
